<svg style="height: 0; width: 0; visibility: hidden" xmlns="http://www.w3.org/2000/svg">
  <symbol id="search" viewBox="0 0 20 20">
    <g>
        <path fill-rule="evenodd" clip-rule="evenodd" d="M13.8033 13.8033C10.8744 16.7322 6.12563 16.7322 3.1967 13.8033C0.267767 10.8744 0.267767 6.12563 3.1967 3.1967C6.12563 0.267767 10.8744 0.267767 13.8033 3.1967C16.7322 6.12563 16.7322 10.8744 13.8033 13.8033ZM14.1457 14.8545C10.8078 17.8256 5.69007 17.7109 2.48959 14.5104C-0.829864 11.191 -0.829864 5.80905 2.48959 2.48959C5.80905 -0.829864 11.191 -0.829864 14.5104 2.48959C17.7115 5.69065 17.8256 10.8097 14.8529 14.1475L19.4605 18.7551C19.6558 18.9504 19.6558 19.267 19.4605 19.4622C19.2653 19.6575 18.9487 19.6575 18.7534 19.4622L14.1457 14.8545Z" fill="currentColor" />
    </g>
  </symbol>

  <symbol id="phone" viewBox="0 0 14 24">
    <g>
        <path fill-rule="evenodd" clip-rule="evenodd" d="M12 1H2C1.44775 1 1 1.44922 1 2V2.5H13V2C13 1.70312 12.8701 1.4375 12.6641 1.25391C12.4873 1.09375 12.2549 1 12 1ZM0 2.5V3.5V18.5V19.5V22C0 23.1055 0.895508 24 2 24H12C12.6602 24 13.2456 23.6797 13.6099 23.1875C13.855 22.8555 14 22.4453 14 22V19.5V18.5V3.5V3V2C14 0.894531 13.1045 0 12 0H2C1.5498 0 1.13428 0.148438 0.799805 0.398438C0.313965 0.761719 0 1.34375 0 2V2.5ZM1 3.5V18.5H13V3.5H1ZM1 22V19.5H13V22C13 22.5508 12.5522 23 12 23H2C1.69092 23 1.41455 22.8594 1.23145 22.6367C1.08691 22.4648 1 22.2422 1 22ZM8 21C8 21.5508 7.55225 22 7 22C6.44775 22 6 21.5508 6 21C6 20.4492 6.44775 20 7 20C7.55225 20 8 20.4492 8 21Z" fill="currentColor" />
    </g>
  </symbol>

  <symbol id="mail" viewBox="0 0 24 14">
    <g>
        <path fill-rule="evenodd" clip-rule="evenodd" d="M23 2V12C23 12.5523 22.5523 13 22 13L2 13C1.44772 13 0.999999 12.5523 0.999999 12L1 2C1 1.89068 1.01754 1.78546 1.04996 1.687L10.4171 9.35103C11.338 10.1045 12.6624 10.1045 13.5833 9.35103L22.9501 1.68727C22.9825 1.78565 23 1.89078 23 2ZM22.1891 1.01786L12.9501 8.57707C12.3975 9.02916 11.6029 9.02916 11.0504 8.57707L1.81123 1.01779C1.87236 1.00611 1.93547 0.999999 2 0.999999L22 1C22.0647 1 22.1279 1.00614 22.1891 1.01786ZM22 0C23.1046 0 24 0.895431 24 2V12C24 13.1046 23.1046 14 22 14L2 14C0.895429 14 0 13.1046 0 12V2C0 0.895429 0.895432 0 2 0H22Z" fill="currentColor" />
    </g>
  </symbol>


  <symbol id="close" viewBox="0 0 20 20">
    <g>
        <path fill-rule="evenodd" clip-rule="evenodd" d="M0.585786 0.585786C1.36683 -0.195262 2.63317 -0.195262 3.41421 0.585786L10 7.17157L16.5858 0.585786C17.3668 -0.195262 18.6332 -0.195262 19.4142 0.585786C20.1953 1.36683 20.1953 2.63317 19.4142 3.41421L12.8284 10L19.4142 16.5858C20.1953 17.3668 20.1953 18.6332 19.4142 19.4142C18.6332 20.1953 17.3668 20.1953 16.5858 19.4142L10 12.8284L3.41421 19.4142C2.63317 20.1953 1.36683 20.1953 0.585786 19.4142C-0.195262 18.6332 -0.195262 17.3668 0.585786 16.5858L7.17157 10L0.585786 3.41421C-0.195262 2.63317 -0.195262 1.36683 0.585786 0.585786Z" fill="currentColor" />
    </g>
  </symbol>

  <symbol id="angleLeft" viewBox="0 0 24 24">
    <g>
      <path fill="none" stroke="currentColor" stroke-linecap="round" stroke-linejoin="round" stroke-width="2" d="m15 19-7-7 7-7"/>
    </g>
  </symbol>

  <symbol id="angleRight" viewBox="0 0 24 24">
    <g>
      <path fill="none" stroke="currentColor" stroke-linecap="round" stroke-linejoin="round" stroke-width="2" d="m9 5 7 7-7 7"/>
    </g>
  </symbol>

  <symbol id="chevronLeft" viewBox="0 0 24 24">
    <g>
      <path fill="none" stroke="currentColor" stroke-linecap="round" stroke-linejoin="round" stroke-width="2" d="m17 16-4-4 4-4m-6 8-4-4 4-4"/>
    </g>
  </symbol>

  <symbol id="chevronRight" viewBox="0 0 24 24">
    <g>
      <path fill="none" stroke="currentColor" stroke-linecap="round" stroke-linejoin="round" stroke-width="2" d="m7 16 4-4-4-4m6 8 4-4-4-4"/>
    </g>
  </symbol>

  <symbol id="" viewBox="">
    <g>

    </g>
  </symbol>
</svg>